<svg width="30" height="30" viewBox="0 0 30 30" fill="none" xmlns="http://www.w3.org/2000/svg">
<path fill-rule="evenodd" clip-rule="evenodd" d="M14.9998 30C17.7094 30.0002 20.3684 29.2664 22.6944 27.8765C25.0204 26.4866 26.9265 24.4924 28.2101 22.106C29.4938 19.7196 30.107 17.03 29.9847 14.323C29.8624 11.6159 29.0091 8.9926 27.5155 6.73167L15.5914 19.9817C15.0344 20.6007 14.2659 20.9888 13.4372 21.0696C12.6084 21.1504 11.7794 20.9181 11.1134 20.4183L5.66709 16.3333C5.31349 16.0681 5.07973 15.6733 5.01722 15.2357C4.95471 14.7981 5.06858 14.3536 5.33378 14C5.59898 13.6464 5.99378 13.4126 6.43133 13.3501C6.86889 13.2876 7.31335 13.4014 7.66695 13.6667L13.1132 17.7517L25.3557 4.15C23.5822 2.45685 21.4206 1.22433 19.0603 0.56037C16.7 -0.103594 14.213 -0.17876 11.8169 0.341454C9.42079 0.861668 7.18877 1.9614 5.31623 3.54435C3.4437 5.12731 1.98775 7.14522 1.07588 9.4214C0.164 11.6976 -0.175999 14.1626 0.085649 16.6007C0.347297 19.0388 1.20261 21.3755 2.57671 23.4063C3.9508 25.4371 5.80177 27.1001 7.96755 28.2496C10.1333 29.3991 12.5479 30.0001 14.9998 30Z" fill="#E0E0E0"/>
</svg>
