<svg width="21" height="21" viewBox="0 0 21 21" fill="none" xmlns="http://www.w3.org/2000/svg">
<path fill-rule="evenodd" clip-rule="evenodd" d="M18.1446 2.82938C17.6131 2.92448 16.8635 3.17061 15.6608 3.57057L6.58168 6.59826C5.42371 6.98424 4.60697 7.25694 4.0196 7.48629C3.80401 7.56755 3.59299 7.66045 3.38747 7.76459C3.2672 7.82752 3.22524 7.86248 3.22245 7.86248C3.08774 7.99287 2.98063 8.14902 2.90748 8.32164C2.83433 8.49425 2.79664 8.67981 2.79664 8.86728C2.79664 9.05476 2.83433 9.24032 2.90748 9.41293C2.98063 9.58555 3.08774 9.74169 3.22245 9.87209C3.27417 9.91036 3.32943 9.94361 3.38747 9.97138C3.52732 10.0455 3.73011 10.1364 4.0196 10.2511C4.60697 10.479 5.42371 10.7517 6.58168 11.1377L6.65999 11.1643C7.04179 11.2901 7.37743 11.402 7.6865 11.5656C8.43157 11.9595 9.04074 12.5687 9.43464 13.3137C9.59827 13.6214 9.71015 13.957 9.83602 14.3402L9.86399 14.4185C10.2486 15.5765 10.5213 16.3932 10.7506 16.9805C10.8312 17.1964 10.9241 17.4074 11.0289 17.6126C11.0919 17.7329 11.1268 17.7749 11.1268 17.7776C11.2572 17.9123 11.4134 18.0195 11.586 18.0926C11.7586 18.1658 11.9442 18.2034 12.1317 18.2034C12.3192 18.2034 12.5047 18.1658 12.6773 18.0926C12.85 18.0195 13.0061 17.9123 13.1365 17.7776C13.1748 17.7259 13.208 17.6707 13.2358 17.6126C13.3099 17.4728 13.4008 17.27 13.5155 16.9791C13.7435 16.3918 14.0162 15.5765 14.4022 14.4199L17.4271 5.34244C17.8285 4.13975 18.0747 3.38737 18.1684 2.85735L18.1754 2.82519C18.1646 2.82701 18.1539 2.82888 18.1432 2.83078M17.6537 0.0771886C18.4229 -0.0598616 19.4788 -0.100417 20.2899 0.710697C21.101 1.52181 21.0591 2.57626 20.9234 3.34682C20.7892 4.10479 20.4717 5.05435 20.1151 6.12558L20.0815 6.22627L17.0551 15.3024L17.0412 15.3443C16.6719 16.4519 16.3783 17.3357 16.1195 17.9958C15.8776 18.6181 15.5909 19.2614 15.1574 19.7117C14.7659 20.1191 14.2961 20.4431 13.7763 20.6645C13.2565 20.8859 12.6974 21 12.1324 21C11.5674 21 11.0082 20.8859 10.4884 20.6645C9.96862 20.4431 9.49889 20.1191 9.10739 19.7117C8.67385 19.2614 8.38716 18.6181 8.14521 17.9958C7.88649 17.3357 7.5928 16.4519 7.22219 15.3429L7.20821 15.3038C7.04039 14.7989 7.00263 14.6982 6.96207 14.6213C6.83072 14.3727 6.62749 14.1695 6.37889 14.0381C6.30197 13.9962 6.20128 13.9598 5.69642 13.7906L5.65726 13.7766C4.54824 13.4074 3.66438 13.1137 3.00288 12.855C2.38194 12.6131 1.73862 12.3264 1.2883 11.8929C0.880951 11.5014 0.556867 11.0317 0.335489 10.5119C0.114111 9.99209 0 9.43295 0 8.86798C0 8.30302 0.114111 7.74387 0.335489 7.22408C0.556867 6.7043 0.880951 6.23457 1.2883 5.84309C1.73862 5.40956 2.38194 5.12288 3.00288 4.88094C3.88064 4.55341 4.76566 4.24567 5.65726 3.95795L5.69642 3.94396L14.7742 0.919069L14.8749 0.885506C15.9461 0.528895 16.8957 0.211442 17.6537 0.0771886Z" fill="#828282" fill-opacity="0.7"/>
</svg>
