<svg width="28" height="28" viewBox="0 0 28 28" fill="none" xmlns="http://www.w3.org/2000/svg">
<path fill-rule="evenodd" clip-rule="evenodd" d="M5.66667 13.1667H11.5C11.9711 13.1678 12.3667 13.0083 12.6867 12.6883C13.0067 12.3683 13.1667 11.9722 13.1667 11.5V5.66667C13.1678 5.19556 13.0083 4.8 12.6883 4.48C12.3683 4.16 11.9722 4 11.5 4H5.66667C5.19556 4.00111 4.8 4.16111 4.48 4.48C4.16 4.79889 4 5.19444 4 5.66667V11.5C4.00111 11.9711 4.16111 12.3667 4.48 12.6867C4.79889 13.0067 5.19444 13.1667 5.66667 13.1667ZM5.66667 24H11.5C11.9711 24.0011 12.3667 23.8417 12.6867 23.5217C13.0067 23.2017 13.1667 22.8056 13.1667 22.3333V16.5C13.1678 16.0289 13.0083 15.6333 12.6883 15.3133C12.3683 14.9933 11.9722 14.8333 11.5 14.8333H5.66667C5.19556 14.8344 4.8 14.9944 4.48 15.3133C4.16 15.6322 4 16.0278 4 16.5V22.3333C4.00111 22.8044 4.16111 23.2 4.48 23.52C4.79889 23.84 5.19444 24 5.66667 24ZM16.5 13.1667H22.3333C22.8044 13.1678 23.2 13.0083 23.52 12.6883C23.84 12.3683 24 11.9722 24 11.5V5.66667C24.0011 5.19556 23.8417 4.8 23.5217 4.48C23.2017 4.16 22.8056 4 22.3333 4H16.5C16.0289 4.00111 15.6333 4.16111 15.3133 4.48C14.9933 4.79889 14.8333 5.19444 14.8333 5.66667V11.5C14.8344 11.9711 14.9944 12.3667 15.3133 12.6867C15.6322 13.0067 16.0278 13.1667 16.5 13.1667ZM16.5 24H22.3333C22.8044 24.0011 23.2 23.8417 23.52 23.5217C23.84 23.2017 24 22.8056 24 22.3333V16.5C24.0011 16.0289 23.8417 15.6333 23.5217 15.3133C23.2017 14.9933 22.8056 14.8333 22.3333 14.8333H16.5C16.0289 14.8344 15.6333 14.9944 15.3133 15.3133C14.9933 15.6322 14.8333 16.0278 14.8333 16.5V22.3333C14.8344 22.8044 14.9944 23.2 15.3133 23.52C15.6322 23.84 16.0278 24 16.5 24Z" fill="#424242"/>
</svg>
