<svg width="16" height="15" viewBox="0 0 16 15" fill="none" xmlns="http://www.w3.org/2000/svg">
<path fill-rule="evenodd" clip-rule="evenodd" d="M8 15C9.98912 15 11.8968 14.2098 13.3033 12.8033C14.7098 11.3968 15.5 9.48912 15.5 7.5C15.5 5.51088 14.7098 3.60322 13.3033 2.1967C11.8968 0.790176 9.98912 0 8 0C6.01088 0 4.10322 0.790176 2.6967 2.1967C1.29018 3.60322 0.5 5.51088 0.5 7.5C0.5 9.48912 1.29018 11.3968 2.6967 12.8033C4.10322 14.2098 6.01088 15 8 15ZM4.45625 3.95625C4.58809 3.82458 4.7668 3.75062 4.95312 3.75062C5.13945 3.75062 5.31816 3.82458 5.45 3.95625L8 6.50625L10.55 3.95625C10.6144 3.88717 10.692 3.83176 10.7782 3.79333C10.8645 3.7549 10.9576 3.73424 11.052 3.73257C11.1464 3.7309 11.2402 3.74827 11.3277 3.78363C11.4153 3.819 11.4948 3.87163 11.5616 3.9384C11.6284 4.00517 11.681 4.0847 11.7164 4.17225C11.7517 4.2598 11.7691 4.35358 11.7674 4.44799C11.7658 4.5424 11.7451 4.63551 11.7067 4.72175C11.6682 4.808 11.6128 4.88563 11.5437 4.95L8.99375 7.5L11.5437 10.05C11.6128 10.1144 11.6682 10.192 11.7067 10.2782C11.7451 10.3645 11.7658 10.4576 11.7674 10.552C11.7691 10.6464 11.7517 10.7402 11.7164 10.8277C11.681 10.9153 11.6284 10.9948 11.5616 11.0616C11.4948 11.1284 11.4153 11.181 11.3277 11.2164C11.2402 11.2517 11.1464 11.2691 11.052 11.2674C10.9576 11.2658 10.8645 11.2451 10.7782 11.2067C10.692 11.1682 10.6144 11.1128 10.55 11.0437L8 8.49375L5.45 11.0437C5.31671 11.1679 5.14042 11.2356 4.95826 11.2324C4.7761 11.2291 4.6023 11.1553 4.47348 11.0265C4.34465 10.8977 4.27086 10.7239 4.26765 10.5417C4.26443 10.3596 4.33205 10.1833 4.45625 10.05L7.00625 7.5L4.45625 4.95C4.32458 4.81816 4.25062 4.63945 4.25062 4.45312C4.25062 4.2668 4.32458 4.08809 4.45625 3.95625Z" fill="#F86565" fill-opacity="0.7"/>
</svg>
