<svg width="30" height="30" viewBox="0 0 30 30" fill="none" xmlns="http://www.w3.org/2000/svg">
<path fill-rule="evenodd" clip-rule="evenodd" d="M15 30C18.9782 30 22.7936 28.4196 25.6066 25.6066C28.4196 22.7936 30 18.9782 30 15C30 11.0218 28.4196 7.20644 25.6066 4.3934C22.7936 1.58035 18.9782 0 15 0C11.0218 0 7.20644 1.58035 4.3934 4.3934C1.58035 7.20644 0 11.0218 0 15C0 18.9782 1.58035 22.7936 4.3934 25.6066C7.20644 28.4196 11.0218 30 15 30ZM7.9125 7.9125C8.17617 7.64915 8.53359 7.50124 8.90625 7.50124C9.27891 7.50124 9.63633 7.64915 9.9 7.9125L15 13.0125L20.1 7.9125C20.2287 7.77434 20.384 7.66352 20.5565 7.58666C20.729 7.5098 20.9152 7.46847 21.104 7.46514C21.2928 7.46181 21.4804 7.49654 21.6555 7.56727C21.8306 7.638 21.9897 7.74327 22.1232 7.8768C22.2567 8.01034 22.362 8.1694 22.4327 8.3445C22.5035 8.51961 22.5382 8.70716 22.5349 8.89598C22.5315 9.0848 22.4902 9.27101 22.4133 9.44351C22.3365 9.61601 22.2257 9.77126 22.0875 9.9L16.9875 15L22.0875 20.1C22.2257 20.2287 22.3365 20.384 22.4133 20.5565C22.4902 20.729 22.5315 20.9152 22.5349 21.104C22.5382 21.2928 22.5035 21.4804 22.4327 21.6555C22.362 21.8306 22.2567 21.9897 22.1232 22.1232C21.9897 22.2567 21.8306 22.362 21.6555 22.4327C21.4804 22.5035 21.2928 22.5382 21.104 22.5349C20.9152 22.5315 20.729 22.4902 20.5565 22.4133C20.384 22.3365 20.2287 22.2257 20.1 22.0875L15 16.9875L9.9 22.0875C9.63342 22.3359 9.28083 22.4711 8.91652 22.4647C8.55221 22.4583 8.20461 22.3107 7.94696 22.053C7.68931 21.7954 7.54172 21.4478 7.5353 21.0835C7.52887 20.7192 7.6641 20.3666 7.9125 20.1L13.0125 15L7.9125 9.9C7.64915 9.63633 7.50124 9.27891 7.50124 8.90625C7.50124 8.53359 7.64915 8.17617 7.9125 7.9125Z" fill="#E0E0E0"/>
</svg>
