<svg width="16" height="15" viewBox="0 0 16 15" fill="none" xmlns="http://www.w3.org/2000/svg">
<path fill-rule="evenodd" clip-rule="evenodd" d="M7.99988 15C9.35468 15.0001 10.6842 14.6332 11.8472 13.9382C13.0102 13.2433 13.9633 12.2462 14.6051 11.053C15.2469 9.8598 15.5535 8.515 15.4924 7.16148C15.4312 5.80797 15.0046 4.4963 14.2578 3.36583L8.29569 9.99083C8.01721 10.3003 7.63296 10.4944 7.21858 10.5348C6.80421 10.5752 6.38971 10.459 6.05669 10.2092L3.33354 8.16667C3.15675 8.03406 3.03986 7.83664 3.00861 7.61785C2.97736 7.39906 3.03429 7.17681 3.16689 7C3.29949 6.82319 3.49689 6.7063 3.71567 6.67504C3.93444 6.64379 4.15668 6.70072 4.33347 6.83333L7.05661 8.87583L13.1779 2.075C12.2911 1.22842 11.2103 0.612167 10.0302 0.280185C8.85001 -0.051797 7.60648 -0.08938 6.40844 0.170727C5.21039 0.430834 4.09438 0.980699 3.15812 1.77218C2.22185 2.56366 1.49388 3.57261 1.03794 4.7107C0.582 5.84879 0.412 7.08131 0.542824 8.30034C0.673649 9.51938 1.10131 10.6877 1.78835 11.7032C2.4754 12.7186 3.40088 13.5501 4.48377 14.1248C5.56666 14.6996 6.77393 15.0001 7.99988 15Z" fill="#91DE6C" fill-opacity="0.7"/>
</svg>
