<svg width="16" height="16" viewBox="0 0 16 16" fill="none" xmlns="http://www.w3.org/2000/svg">
<path d="M12.72 6.03768L12.3664 5.68413L10.4874 3.80513L10.1339 3.45157L10.4874 3.09802L11.292 2.29347L12.72 6.03768ZM12.72 6.03768L13.0736 5.68413M12.72 6.03768L13.0736 5.68413M13.0736 5.68413L13.8781 4.87957M13.0736 5.68413L13.8781 4.87957M13.8781 4.87957C13.8782 4.87946 13.8783 4.87934 13.8785 4.87922M13.8781 4.87957L13.8785 4.87922M13.8785 4.87922C13.8785 4.87919 13.8785 4.87916 13.8786 4.87913M13.8785 4.87922L13.8786 4.87913M13.8786 4.87913C13.9715 4.78633 14.0452 4.67614 14.0955 4.55484M13.8786 4.87913L14.0955 4.55484M14.0955 4.55484C14.1459 4.43335 14.1719 4.30311 14.1719 4.17157M14.0955 4.55484L14.1719 4.17157M14.1719 4.17157C14.1719 4.04004 14.1459 3.9098 14.0955 3.78831M14.1719 4.17157L14.0955 3.78831M14.0955 3.78831C14.0452 3.66701 13.9715 3.55682 13.8786 3.46402M14.0955 3.78831L13.8786 3.46402M13.8786 3.46402C13.8785 3.46399 13.8785 3.46396 13.8785 3.46393M13.8786 3.46402L13.8785 3.46393M13.8785 3.46393C13.8783 3.46381 13.8782 3.46369 13.8781 3.46357M13.8785 3.46393L13.8781 3.46357M13.8781 3.46357L12.708 2.29347L13.8781 3.46357ZM12.3833 2.07604C12.5046 2.12637 12.6148 2.2001 12.7076 2.29302L12.3833 2.07604ZM12.3833 2.07604C12.2618 2.02563 12.1315 1.99968 12 1.99968M12.3833 2.07604L12 1.99968M12 1.99968C11.8685 1.99968 11.7382 2.02563 11.6167 2.07604M12 1.99968L11.6167 2.07604M11.6167 2.07604C11.4954 2.12637 11.3852 2.2001 11.2924 2.29302L11.6167 2.07604ZM2 13.6716V14.1716H2.5H4.38H4.58711L4.73355 14.0251L12.0136 6.74513L12.3672 6.39148L12.0135 6.03793L10.1335 4.15893L9.77991 3.80556L9.42645 4.15902L2.14645 11.439L2 11.5855V11.7926V13.6716ZM1.5 13.6716V11.3787L10.9395 1.93918C10.9395 1.93916 10.9395 1.93914 10.9396 1.93913C11.2208 1.65795 11.6023 1.5 12 1.5C12.3977 1.5 12.7792 1.65797 13.0605 1.93918L14.2324 3.11107C14.5136 3.39236 14.6716 3.77383 14.6716 4.17157C14.6716 4.56929 14.5136 4.95073 14.2324 5.23202C14.2324 5.23204 14.2324 5.23206 14.2324 5.23207L4.79289 14.6716H1.5V13.6716Z" stroke="black" stroke-opacity="0.5"/>
</svg>
