<svg width="29" height="28" viewBox="0 0 29 28" fill="none" xmlns="http://www.w3.org/2000/svg">
<path d="M22.7704 9.17855H6.22966C4.93003 9.17855 3.8667 8.09372 3.8667 6.76783C3.8667 5.44194 4.93003 4.35712 6.22966 4.35712H22.7704C24.07 4.35712 25.1334 5.44194 25.1334 6.76783C25.1334 8.09372 24.07 9.17855 22.7704 9.17855ZM22.7704 11.5893H6.22966C4.93003 11.5893 3.8667 12.6741 3.8667 14C3.8667 15.3259 4.93003 16.4107 6.22966 16.4107H22.7704C24.07 16.4107 25.1334 15.3259 25.1334 14C25.1334 12.6741 24.07 11.5893 22.7704 11.5893ZM22.7704 18.8214H6.22966C4.93003 18.8214 3.8667 19.9062 3.8667 21.2321C3.8667 22.558 4.93003 23.6428 6.22966 23.6428H22.7704C24.07 23.6428 25.1334 22.558 25.1334 21.2321C25.1334 19.9062 24.07 18.8214 22.7704 18.8214Z" fill="#424242"/>
</svg>
