<svg width="24" height="24" viewBox="0 0 24 24" fill="none" xmlns="http://www.w3.org/2000/svg">
<g clip-path="url(#clip0_105_68)">
<path d="M11.8732 22.632L6.73033 23.0777L7.17604 17.9348L17.8732 7.30628C18.0328 7.143 18.2235 7.01326 18.434 6.92469C18.6445 6.83612 18.8705 6.79049 19.0989 6.79049C19.3273 6.79049 19.5533 6.83612 19.7638 6.92469C19.9743 7.01326 20.165 7.143 20.3246 7.30628L22.5018 9.50056C22.6622 9.66004 22.7896 9.84968 22.8765 10.0586C22.9634 10.2675 23.0081 10.4915 23.0081 10.7177C23.0081 10.9439 22.9634 11.168 22.8765 11.3768C22.7896 11.5857 22.6622 11.7754 22.5018 11.9348L11.8732 22.632ZM1.44347 6.80913C0.841759 6.70456 0.841759 5.84056 1.44347 5.73599C2.50887 5.55056 3.49492 5.05207 4.27591 4.30406C5.05689 3.55605 5.59743 2.59241 5.82862 1.53599L5.86462 1.36971C5.9949 0.776563 6.84176 0.77142 6.9789 1.36628L7.02176 1.55828C7.26142 2.60999 7.80647 3.56745 8.58848 4.31042C9.37049 5.05339 10.3546 5.54875 11.4172 5.73428C12.0223 5.83713 12.0223 6.70628 11.4172 6.81256C10.3545 6.99766 9.37019 7.49263 8.58788 8.23529C7.80556 8.97796 7.26012 9.93521 7.02004 10.9868L6.97547 11.1806C6.84004 11.7737 5.99319 11.7703 5.8629 11.1754L5.82862 11.0091C5.5972 9.95225 5.05615 8.98827 4.27451 8.24022C3.49286 7.49216 2.50607 6.99394 1.44004 6.80913H1.44347Z" stroke="black" stroke-width="1.5" stroke-linecap="round" stroke-linejoin="round"/>
</g>
<defs>
<clipPath id="clip0_105_68">
<rect width="24" height="24" fill="white"/>
</clipPath>
</defs>
</svg>
